<?xml version="1.0" encoding="UTF-8"?>
<!DOCTYPE svg PUBLIC "-//W3C//DTD SVG 1.1//EN" "http://www.w3.org/Graphics/SVG/1.1/DTD/svg11.dtd">
<!-- Creator: CorelDRAW X8 -->
<svg xmlns="http://www.w3.org/2000/svg" xml:space="preserve" width="1900px" height="732px" version="1.1" style="shape-rendering:geometricPrecision; text-rendering:geometricPrecision; image-rendering:optimizeQuality; fill-rule:evenodd; clip-rule:evenodd"
viewBox="0 0 1017 392"
 xmlns:xlink="http://www.w3.org/1999/xlink">
 <defs>
  <style type="text/css">
   <![CDATA[
    .fil4 {fill:none}
    .fil0 {fill:#00695C}
    .fil5 {fill:#00695C}
    .fil3 {fill:#00897B}
    .fil2 {fill:#00897B}
    .fil1 {fill:#009688}
   ]]>
  </style>
 </defs>
 <g id="Capa_x0020_1">
  <metadata id="CorelCorpID_0Corel-Layer"/>
  <polygon class="fil0" points="0,348 0,392 115,392 "/>
  <polygon class="fil1" points="38,189 0,156 0,223 "/>
  <polygon class="fil0" points="180,392 250,392 271,392 213,341 210,339 206,346 "/>
  <polygon class="fil2" points="135,392 137,392 177,392 180,392 206,346 210,339 210,338 "/>
  <polygon class="fil1" points="0,273 0,348 115,392 135,392 210,338 209,338 195,333 "/>
  <polygon class="fil3" points="62,210 38,189 0,223 0,272 0,273 195,333 209,338 209,338 197,327 "/>
  <polygon class="fil1" points="242,183 241,183 137,199 132,199 62,210 197,327 210,339 210,338 "/>
  <polygon class="fil3" points="210,338 210,339 271,392 279,392 381,392 "/>
  <polygon class="fil0" points="336,258 242,183 242,183 210,338 210,338 "/>
  <polygon class="fil1" points="336,258 210,338 210,338 215,340 381,392 381,392 422,392 "/>
  <polygon class="fil2" points="485,277 337,258 336,258 422,392 441,392 "/>
  <polygon class="fil1" points="567,392 640,392 628,353 "/>
  <polygon class="fil3" points="494,392 567,392 628,353 628,353 "/>
  <polygon class="fil1" points="446,392 494,392 628,353 582,201 "/>
  <polygon class="fil0" points="582,201 485,277 441,392 446,392 "/>
  <polygon class="fil2" points="926,304 777,261 777,261 810,385 810,385 "/>
  <polygon class="fil1" points="811,392 885,392 912,392 916,369 926,304 810,385 810,385 "/>
  <polygon class="fil1" points="810,385 777,261 699,309 628,353 "/>
  <polygon class="fil2" points="800,392 811,392 810,385 "/>
  <polygon class="fil0" points="628,353 640,392 774,392 800,392 810,385 810,385 628,353 "/>
  <polygon class="fil4" points="628,353 628,353 628,353 "/>
  <polygon class="fil2" points="582,201 772,242 777,261 699,309 628,353 628,353 "/>
  <polygon class="fil5" points="1017,166 1017,202 996,198 "/>
  <polygon class="fil2" points="1017,80 1017,155 1017,166 996,198 873,175 "/>
  <polygon class="fil3" points="997,19 1017,0 1017,15 "/>
  <polygon class="fil0" points="996,19 997,19 997,19 997,19 1017,15 1017,15 1017,45 1017,55 "/>
  <polygon class="fil1" points="873,175 910,128 996,19 996,19 1017,55 1017,80 "/>
  <polygon class="fil1" points="926,304 777,261 772,242 975,229 "/>
  <polygon class="fil3" points="960,392 912,392 926,304 "/>
  <polygon class="fil0" points="991,392 974,392 960,392 944,348 926,304 981,290 "/>
  <polygon class="fil3" points="1017,281 1017,294 1017,353 1017,392 995,392 991,392 981,290 "/>
  <polygon class="fil3" points="981,290 926,304 975,229 "/>
  <polygon class="fil5" points="1017,272 1017,280 1017,281 1015,282 981,290 981,290 "/>
  <polygon class="fil1" points="1017,227 1017,272 981,290 975,229 975,229 1012,227 "/>
  <polygon class="fil5" points="1017,202 1017,206 1017,227 1012,227 975,229 975,229 "/>
  <polygon class="fil1" points="996,198 1017,202 975,229 "/>
  <polygon class="fil0" points="873,175 996,198 975,229 772,242 "/>
  <polygon class="fil2" points="582,201 694,141 873,175 "/>
  <polygon class="fil1" points="772,242 582,201 582,201 873,175 873,175 "/>
 </g>
</svg>
