<?xml version="1.0" encoding="UTF-8"?>
<!DOCTYPE svg PUBLIC "-//W3C//DTD SVG 1.1//EN" "http://www.w3.org/Graphics/SVG/1.1/DTD/svg11.dtd">
<!-- Creator: CorelDRAW X8 -->
<svg xmlns="http://www.w3.org/2000/svg" xml:space="preserve" width="1280px" height="1280px" version="1.1" style="shape-rendering:geometricPrecision; text-rendering:geometricPrecision; image-rendering:optimizeQuality; fill-rule:evenodd; clip-rule:evenodd"
viewBox="0 0 1238 1238"
 xmlns:xlink="http://www.w3.org/1999/xlink">
 <defs>
  <style type="text/css">
   <![CDATA[
    .fil2 {fill:#009688}
    .fil1 {fill:#F0F0F0}
    .fil0 {fill:white}
    .fil3 {fill:#009688;fill-rule:nonzero}
   ]]>
  </style>
 </defs>
 <g id="Capa_x0020_1">
  <metadata id="CorelCorpID_0Corel-Layer"/>
  <path class="fil0" d="M0 0l619 0c340,0 619,278 619,619l0 619 -619 0c-341,0 -619,-279 -619,-619l0 -619z"/>
  <path class="fil1" d="M0 0l8 0c594,165 1063,632 1230,1227l0 11 -619 0c-341,0 -619,-279 -619,-619l0 -619z"/>
  <path class="fil2" d="M604 233c22,-7 49,-2 68,13 -58,23 -96,65 -94,124 2,76 160,53 173,157 12,102 -70,168 -176,207 42,-43 118,-138 103,-193 -19,-68 -146,-76 -182,-157 -19,-43 -7,-91 30,-119 12,-6 23,-7 33,-7 -17,22 -31,30 -34,79 13,-43 38,-91 79,-104zm-4 568c-167,-10 -299,-148 -299,-318 0,-169 132,-307 299,-317l0 49c-140,10 -251,126 -251,268 0,143 111,259 251,269l0 49zm38 -635c167,10 299,148 299,317 0,170 -132,308 -299,318l0 -49c140,-10 250,-126 250,-269 0,-142 -110,-258 -250,-268l0 -49z"/>
  <polygon class="fil3" points="314,1046 314,879 330,879 330,1032 397,1032 397,1046 "/>
  <path id="1" class="fil3" d="M430 897c-3,0 -5,-1 -8,-3 -2,-2 -3,-5 -3,-8 0,-3 1,-5 3,-7 3,-2 5,-3 8,-3 1,0 3,0 4,0 1,1 3,2 4,3 1,1 1,2 2,3 0,1 1,3 1,4 0,2 -1,3 -1,4 -1,2 -1,3 -2,4 -1,1 -3,2 -4,2 -1,1 -3,1 -4,1zm-8 149l0 -119 16 0 0 119 -16 0z"/>
  <path id="2" class="fil3" d="M531 884c-3,-2 -7,-4 -13,-4 -14,0 -21,10 -21,28l0 19 30 0 0 13 -30 0 0 106 -15 0 0 -106 -20 0 0 -13 20 0 0 -20c0,-6 1,-12 3,-16 1,-5 3,-9 6,-13 3,-3 7,-6 11,-8 5,-2 10,-3 16,-3 5,0 10,1 13,3l0 14z"/>
  <path id="3" class="fil3" d="M553 989c0,8 1,14 3,20 2,6 4,11 8,15 3,4 8,7 13,9 5,2 10,3 17,3 13,0 26,-4 38,-14l0 15c-12,8 -26,12 -42,12 -8,0 -15,-1 -22,-4 -6,-3 -12,-7 -16,-12 -5,-6 -8,-12 -11,-20 -2,-8 -4,-17 -4,-27 0,-8 2,-17 5,-24 2,-8 6,-15 11,-20 5,-6 10,-10 17,-13 7,-3 14,-5 22,-5 7,0 14,1 20,4 6,3 11,7 15,12 4,5 7,11 9,18 2,7 3,15 3,24l0 7 -86 0zm71 -13c0,-12 -3,-22 -9,-29 -6,-7 -14,-10 -24,-10 -5,0 -9,1 -14,3 -4,1 -8,4 -11,7 -3,4 -6,8 -8,13 -2,5 -4,10 -5,16l71 0z"/>
  <path id="4" class="fil3" d="M845 1046l-19 -49 -71 0 -18 49 -18 0 64 -167 16 0 63 167 -17 0zm-51 -138c-1,-1 -1,-3 -2,-5 -1,-2 -1,-4 -1,-6l-1 0c0,2 -1,4 -2,6 0,2 -1,4 -1,5l-27 75 61 0 -27 -75z"/>
  <path id="5" class="fil3" d="M901 1027l0 74 -15 0 0 -174 15 0 0 23 0 0c5,-9 10,-15 18,-19 7,-5 16,-7 25,-7 7,0 14,1 20,4 6,3 11,7 15,12 5,5 8,11 10,18 2,8 3,16 3,25 0,10 -1,19 -3,27 -3,8 -6,15 -11,21 -5,5 -10,10 -17,13 -7,3 -14,5 -22,5 -17,0 -30,-7 -38,-22l0 0zm0 -30c0,5 1,10 2,15 2,5 5,9 8,12 3,4 7,7 12,9 4,2 10,3 15,3 6,0 11,-1 16,-4 5,-2 9,-6 13,-10 3,-5 6,-11 7,-17 2,-7 3,-14 3,-22 0,-7 -1,-14 -3,-19 -1,-6 -4,-11 -7,-15 -3,-4 -7,-7 -11,-9 -5,-2 -10,-3 -15,-3 -6,0 -12,1 -17,3 -5,3 -9,6 -12,10 -4,4 -7,8 -9,14 -1,5 -2,11 -2,17l0 16z"/>
  <path id="6" class="fil3" d="M1038 1027l0 74 -15 0 0 -174 15 0 0 23 0 0c4,-9 10,-15 18,-19 7,-5 15,-7 25,-7 7,0 14,1 20,4 6,3 11,7 15,12 4,5 8,11 10,18 2,8 3,16 3,25 0,10 -1,19 -4,27 -2,8 -6,15 -10,21 -5,5 -11,10 -17,13 -7,3 -14,5 -23,5 -16,0 -29,-7 -37,-22l0 0zm0 -30c0,5 0,10 2,15 2,5 5,9 8,12 3,4 7,7 12,9 4,2 9,3 15,3 6,0 11,-1 16,-4 5,-2 9,-6 12,-10 4,-5 6,-11 8,-17 2,-7 3,-14 3,-22 0,-7 -1,-14 -3,-19 -1,-6 -4,-11 -7,-15 -3,-4 -7,-7 -11,-9 -5,-2 -10,-3 -15,-3 -6,0 -12,1 -17,3 -5,3 -9,6 -13,10 -3,4 -6,8 -8,14 -2,5 -2,11 -2,17l0 16z"/>
 </g>
</svg>
